<svg class="screen-reader-text" xmlns="http://www.w3.org/2000/svg"><defs><symbol id="icon-search" viewBox="0 0 30 32"><path d="M20.571 14.857q0-3.304-2.348-5.652t-5.652-2.348-5.652 2.348-2.348 5.652 2.348 5.652 5.652 2.348 5.652-2.348 2.348-5.652zm9.143 14.857q0 .929-.679 1.607T27.428 32q-.964 0-1.607-.679l-6.125-6.107q-3.196 2.214-7.125 2.214-2.554 0-4.884-.991t-4.018-2.679T.99 19.74t-.991-4.884.991-4.884 2.679-4.018 4.018-2.679 4.884-.991 4.884.991 4.018 2.679 2.679 4.018.991 4.884q0 3.929-2.214 7.125l6.125 6.125q.661.661.661 1.607z"/></symbol><symbol id="icon-facebook" viewBox="0 0 19 32"><path d="M17.125.214v4.714h-2.804q-1.536 0-2.071.643T11.714 7.5v3.375h5.232l-.696 5.286h-4.536v13.554H6.25V16.161H1.696v-5.286H6.25V6.982q0-3.321 1.857-5.152T13.053 0q2.625 0 4.071.214z"/></symbol><symbol id="icon-instagram" viewBox="0 0 27 32"><path d="M18.286 16q0-1.893-1.339-3.232t-3.232-1.339-3.232 1.339T9.144 16t1.339 3.232 3.232 1.339 3.232-1.339T18.286 16zm2.464 0q0 2.929-2.054 4.982t-4.982 2.054-4.982-2.054T6.678 16t2.054-4.982 4.982-2.054 4.982 2.054T20.75 16zm1.929-7.321q0 .679-.482 1.161t-1.161.482-1.161-.482-.482-1.161.482-1.161 1.161-.482 1.161.482.482 1.161zM13.714 4.75l-1.366-.009q-1.241-.009-1.884 0t-1.723.054-1.839.179-1.277.33q-.893.357-1.571 1.036T3.018 7.911q-.196.518-.33 1.277t-.179 1.839-.054 1.723 0 1.884T2.464 16t-.009 1.366 0 1.884.054 1.723.179 1.839.33 1.277q.357.893 1.036 1.571t1.571 1.036q.518.196 1.277.33t1.839.179 1.723.054 1.884 0 1.366-.009 1.366.009 1.884 0 1.723-.054 1.839-.179 1.277-.33q.893-.357 1.571-1.036t1.036-1.571q.196-.518.33-1.277t.179-1.839.054-1.723 0-1.884T24.964 16t.009-1.366 0-1.884-.054-1.723-.179-1.839-.33-1.277q-.357-.893-1.036-1.571t-1.571-1.036q-.518-.196-1.277-.33t-1.839-.179-1.723-.054-1.884 0-1.366.009zM27.429 16q0 4.089-.089 5.661-.179 3.714-2.214 5.75t-5.75 2.214q-1.571.089-5.661.089t-5.661-.089q-3.714-.179-5.75-2.214T.09 21.661Q.001 20.09.001 16t.089-5.661q.179-3.714 2.214-5.75t5.75-2.214q1.571-.089 5.661-.089t5.661.089q3.714.179 5.75 2.214t2.214 5.75q.089 1.571.089 5.661z"/></symbol><symbol id="icon-chain" viewBox="0 0 30 32"><path d="M26 21.714q0-.714-.5-1.214l-3.714-3.714q-.5-.5-1.214-.5-.75 0-1.286.571.054.054.339.33t.384.384.268.339.232.455.063.491q0 .714-.5 1.214t-1.214.5q-.268 0-.491-.063t-.455-.232-.339-.268-.384-.384-.33-.339q-.589.554-.589 1.304 0 .714.5 1.214l3.679 3.696q.482.482 1.214.482.714 0 1.214-.464l2.625-2.607q.5-.5.5-1.196zM13.446 9.125q0-.714-.5-1.214L9.267 4.215q-.5-.5-1.214-.5-.696 0-1.214.482L4.214 6.804q-.5.5-.5 1.196 0 .714.5 1.214l3.714 3.714q.482.482 1.214.482.75 0 1.286-.554-.054-.054-.339-.33t-.384-.384-.268-.339-.232-.455-.063-.491q0-.714.5-1.214t1.214-.5q.268 0 .491.063t.455.232.339.268.384.384.33.339q.589-.554.589-1.304zm15.983 12.589q0 2.143-1.518 3.625l-2.625 2.607q-1.482 1.482-3.625 1.482-2.161 0-3.643-1.518l-3.679-3.696q-1.482-1.482-1.482-3.625 0-2.196 1.571-3.732l-1.571-1.571q-1.536 1.571-3.714 1.571-2.143 0-3.643-1.5l-3.714-3.714Q.286 10.143.286 8t1.518-3.625l2.625-2.607Q5.911.286 8.054.286q2.161 0 3.643 1.518L15.376 5.5q1.482 1.482 1.482 3.625 0 2.196-1.571 3.732l1.571 1.571q1.536-1.571 3.714-1.571 2.143 0 3.643 1.5l3.714 3.714q1.5 1.5 1.5 3.643z"/></symbol><symbol id="icon-arrow-up" viewBox="0 0 32 32"><path d="M27.414 12.586l-10-10a2 2 0 0 0-2.828 0l-10 10a2 2 0 1 0 2.828 2.828L14 8.828V28a2 2 0 1 0 4 0V8.828l6.586 6.586c.39.39.902.586 1.414.586s1.024-.195 1.414-.586a2 2 0 0 0 0-2.828z"/></symbol><symbol id="icon-sharing" viewBox="0 0 24 24"><path d="M20.9 9.4c.1-.2.1-.5 0-.8-.1-.1-.1-.2-.2-.3l-5-5c-.4-.4-1-.4-1.4 0s-.4 1 0 1.4L17.6 8H8c-2.8 0-5 2.2-5 5v7c0 .6.4 1 1 1s1-.4 1-1v-7c0-1.7 1.3-3 3-3h9.6l-3.3 3.3c-.4.4-.4 1 0 1.4.2.2.5.3.7.3s.5-.1.7-.3l5-5c.1-.1.2-.2.2-.3z"/></symbol><symbol id="icon-camera" viewBox="0 0 24 24"><path d="M12 17.016c2.766 0 5.016-2.25 5.016-5.016S14.766 6.984 12 6.984 6.984 9.234 6.984 12s2.25 5.016 5.016 5.016zm-3-15h6l1.828 1.969h3.188c1.078 0 1.969.938 1.969 2.016v12c0 1.078-.891 2.016-1.969 2.016H3.985c-1.078 0-1.969-.938-1.969-2.016v-12c0-1.078.891-2.016 1.969-2.016h3.188zM8.813 12c0-1.781 1.406-3.188 3.188-3.188s3.188 1.406 3.188 3.188-1.406 3.188-3.188 3.188S8.813 13.782 8.813 12z"/></symbol><symbol id="icon-chevron-left" viewBox="0 0 20 20"><path d="M13.891 17.418c.268.272.268.709 0 .979s-.701.271-.969 0l-7.83-7.908a.697.697 0 0 1 0-.979l7.83-7.908c.268-.27.701-.27.969 0s.268.709 0 .979L6.75 10l7.141 7.418z"/></symbol><symbol id="icon-chevron-right" viewBox="0 0 20 20"><path d="M13.25 10L6.109 2.58a.697.697 0 0 1 0-.979.68.68 0 0 1 .969 0l7.83 7.908a.697.697 0 0 1 0 .979l-7.83 7.908c-.268.271-.701.27-.969 0s-.268-.707 0-.979L13.25 10z"/></symbol><symbol id="icon-map-marker" viewBox="0 0 16 28"><path d="M12 10c0-2.203-1.797-4-4-4s-4 1.797-4 4 1.797 4 4 4 4-1.797 4-4zm4 0c0 .953-.109 1.937-.516 2.797L9.796 24.891C9.468 25.579 8.749 26 7.999 26s-1.469-.422-1.781-1.109L.515 12.797C.109 11.938-.001 10.953-.001 10c0-4.422 3.578-8 8-8s8 3.578 8 8z"/></symbol><symbol id="icon-calendar" viewBox="0 0 26 28"><path d="M2 26h4.5v-4.5H2V26zm5.5 0h5v-4.5h-5V26zM2 20.5h4.5v-5H2v5zm5.5 0h5v-5h-5v5zm-5.5-6h4.5V10H2v4.5zM13.5 26h5v-4.5h-5V26zm-6-11.5h5V10h-5v4.5zm12 11.5H24v-4.5h-4.5V26zm-6-5.5h5v-5h-5v5zM8 7V2.5c0-.266-.234-.5-.5-.5h-1c-.266 0-.5.234-.5.5V7c0 .266.234.5.5.5h1c.266 0 .5-.234.5-.5zm11.5 13.5H24v-5h-4.5v5zm-6-6h5V10h-5v4.5zm6 0H24V10h-4.5v4.5zM20 7V2.5c0-.266-.234-.5-.5-.5h-1c-.266 0-.5.234-.5.5V7c0 .266.234.5.5.5h1c.266 0 .5-.234.5-.5zm6-1v20c0 1.094-.906 2-2 2H2c-1.094 0-2-.906-2-2V6c0-1.094.906-2 2-2h2V2.5C4 1.125 5.125 0 6.5 0h1C8.875 0 10 1.125 10 2.5V4h6V2.5C16 1.125 17.125 0 18.5 0h1C20.875 0 22 1.125 22 2.5V4h2c1.094 0 2 .906 2 2z"/></symbol><symbol id="icon-menu" viewBox="0 0 24 24"><path d="M21 11H3c-.6 0-1 .4-1 1s.4 1 1 1h18c.6 0 1-.4 1-1s-.4-1-1-1zM3 7h18c.6 0 1-.4 1-1s-.4-1-1-1H3c-.6 0-1 .4-1 1s.4 1 1 1zm18 10H3c-.6 0-1 .4-1 1s.4 1 1 1h18c.6 0 1-.4 1-1s-.4-1-1-1z"/></symbol></defs></svg>