<svg class="screen-reader-text" version="1.1" xmlns="http://www.w3.org/2000/svg" xmlns:xlink="http://www.w3.org/1999/xlink">
<defs>
<symbol id="icon-search" viewBox="0 0 30 32">
<path d="M20.571 14.857q0-3.304-2.348-5.652t-5.652-2.348-5.652 2.348-2.348 5.652 2.348 5.652 5.652 2.348 5.652-2.348 2.348-5.652zM29.714 29.714q0 0.929-0.679 1.607t-1.607 0.679q-0.964 0-1.607-0.679l-6.125-6.107q-3.196 2.214-7.125 2.214-2.554 0-4.884-0.991t-4.018-2.679-2.679-4.018-0.991-4.884 0.991-4.884 2.679-4.018 4.018-2.679 4.884-0.991 4.884 0.991 4.018 2.679 2.679 4.018 0.991 4.884q0 3.929-2.214 7.125l6.125 6.125q0.661 0.661 0.661 1.607z"></path>
</symbol>
<symbol id="icon-facebook" viewBox="0 0 19 32">
<path d="M17.125 0.214v4.714h-2.804q-1.536 0-2.071 0.643t-0.536 1.929v3.375h5.232l-0.696 5.286h-4.536v13.554h-5.464v-13.554h-4.554v-5.286h4.554v-3.893q0-3.321 1.857-5.152t4.946-1.83q2.625 0 4.071 0.214z"></path>
</symbol>
<symbol id="icon-twitter" viewBox="0 0 26 28">
<path d="M25.312 6.375c-0.688 1-1.547 1.891-2.531 2.609 0.016 0.219 0.016 0.438 0.016 0.656 0 6.672-5.078 14.359-14.359 14.359-2.859 0-5.516-0.828-7.75-2.266 0.406 0.047 0.797 0.063 1.219 0.063 2.359 0 4.531-0.797 6.266-2.156-2.219-0.047-4.078-1.5-4.719-3.5 0.313 0.047 0.625 0.078 0.953 0.078 0.453 0 0.906-0.063 1.328-0.172-2.312-0.469-4.047-2.5-4.047-4.953v-0.063c0.672 0.375 1.453 0.609 2.281 0.641-1.359-0.906-2.25-2.453-2.25-4.203 0-0.938 0.25-1.797 0.688-2.547 2.484 3.062 6.219 5.063 10.406 5.281-0.078-0.375-0.125-0.766-0.125-1.156 0-2.781 2.25-5.047 5.047-5.047 1.453 0 2.766 0.609 3.687 1.594 1.141-0.219 2.234-0.641 3.203-1.219-0.375 1.172-1.172 2.156-2.219 2.781 1.016-0.109 2-0.391 2.906-0.781z"></path>
</symbol>
<symbol id="icon-instagram" viewBox="0 0 27 32">
<path d="M18.286 16q0-1.893-1.339-3.232t-3.232-1.339-3.232 1.339-1.339 3.232 1.339 3.232 3.232 1.339 3.232-1.339 1.339-3.232zM20.75 16q0 2.929-2.054 4.982t-4.982 2.054-4.982-2.054-2.054-4.982 2.054-4.982 4.982-2.054 4.982 2.054 2.054 4.982zM22.679 8.679q0 0.679-0.482 1.161t-1.161 0.482-1.161-0.482-0.482-1.161 0.482-1.161 1.161-0.482 1.161 0.482 0.482 1.161zM13.714 4.75q-0.125 0-1.366-0.009t-1.884 0-1.723 0.054-1.839 0.179-1.277 0.33q-0.893 0.357-1.571 1.036t-1.036 1.571q-0.196 0.518-0.33 1.277t-0.179 1.839-0.054 1.723 0 1.884 0.009 1.366-0.009 1.366 0 1.884 0.054 1.723 0.179 1.839 0.33 1.277q0.357 0.893 1.036 1.571t1.571 1.036q0.518 0.196 1.277 0.33t1.839 0.179 1.723 0.054 1.884 0 1.366-0.009 1.366 0.009 1.884 0 1.723-0.054 1.839-0.179 1.277-0.33q0.893-0.357 1.571-1.036t1.036-1.571q0.196-0.518 0.33-1.277t0.179-1.839 0.054-1.723 0-1.884-0.009-1.366 0.009-1.366 0-1.884-0.054-1.723-0.179-1.839-0.33-1.277q-0.357-0.893-1.036-1.571t-1.571-1.036q-0.518-0.196-1.277-0.33t-1.839-0.179-1.723-0.054-1.884 0-1.366 0.009zM27.429 16q0 4.089-0.089 5.661-0.179 3.714-2.214 5.75t-5.75 2.214q-1.571 0.089-5.661 0.089t-5.661-0.089q-3.714-0.179-5.75-2.214t-2.214-5.75q-0.089-1.571-0.089-5.661t0.089-5.661q0.179-3.714 2.214-5.75t5.75-2.214q1.571-0.089 5.661-0.089t5.661 0.089q3.714 0.179 5.75 2.214t2.214 5.75q0.089 1.571 0.089 5.661z"></path>
</symbol>
<symbol id="icon-chain" viewBox="0 0 30 32">
<path d="M26 21.714q0-0.714-0.5-1.214l-3.714-3.714q-0.5-0.5-1.214-0.5-0.75 0-1.286 0.571 0.054 0.054 0.339 0.33t0.384 0.384 0.268 0.339 0.232 0.455 0.063 0.491q0 0.714-0.5 1.214t-1.214 0.5q-0.268 0-0.491-0.063t-0.455-0.232-0.339-0.268-0.384-0.384-0.33-0.339q-0.589 0.554-0.589 1.304 0 0.714 0.5 1.214l3.679 3.696q0.482 0.482 1.214 0.482 0.714 0 1.214-0.464l2.625-2.607q0.5-0.5 0.5-1.196zM13.446 9.125q0-0.714-0.5-1.214l-3.679-3.696q-0.5-0.5-1.214-0.5-0.696 0-1.214 0.482l-2.625 2.607q-0.5 0.5-0.5 1.196 0 0.714 0.5 1.214l3.714 3.714q0.482 0.482 1.214 0.482 0.75 0 1.286-0.554-0.054-0.054-0.339-0.33t-0.384-0.384-0.268-0.339-0.232-0.455-0.063-0.491q0-0.714 0.5-1.214t1.214-0.5q0.268 0 0.491 0.063t0.455 0.232 0.339 0.268 0.384 0.384 0.33 0.339q0.589-0.554 0.589-1.304zM29.429 21.714q0 2.143-1.518 3.625l-2.625 2.607q-1.482 1.482-3.625 1.482-2.161 0-3.643-1.518l-3.679-3.696q-1.482-1.482-1.482-3.625 0-2.196 1.571-3.732l-1.571-1.571q-1.536 1.571-3.714 1.571-2.143 0-3.643-1.5l-3.714-3.714q-1.5-1.5-1.5-3.643t1.518-3.625l2.625-2.607q1.482-1.482 3.625-1.482 2.161 0 3.643 1.518l3.679 3.696q1.482 1.482 1.482 3.625 0 2.196-1.571 3.732l1.571 1.571q1.536-1.571 3.714-1.571 2.143 0 3.643 1.5l3.714 3.714q1.5 1.5 1.5 3.643z"></path>
</symbol>
<symbol id="icon-arrow-up" viewBox="0 0 32 32">
<path d="M27.414 12.586l-10-10c-0.781-0.781-2.047-0.781-2.828 0l-10 10c-0.781 0.781-0.781 2.047 0 2.828s2.047 0.781 2.828 0l6.586-6.586v19.172c0 1.105 0.895 2 2 2s2-0.895 2-2v-19.172l6.586 6.586c0.39 0.39 0.902 0.586 1.414 0.586s1.024-0.195 1.414-0.586c0.781-0.781 0.781-2.047 0-2.828z"></path>
</symbol>
<symbol id="icon-sharing" viewBox="0 0 24 24">
<path d="M20.9 9.4c0.1-0.2 0.1-0.5 0-0.8-0.1-0.1-0.1-0.2-0.2-0.3l-5-5c-0.4-0.4-1-0.4-1.4 0s-0.4 1 0 1.4l3.3 3.3h-9.6c-2.8 0-5 2.2-5 5v7c0 0.6 0.4 1 1 1s1-0.4 1-1v-7c0-1.7 1.3-3 3-3h9.6l-3.3 3.3c-0.4 0.4-0.4 1 0 1.4 0.2 0.2 0.5 0.3 0.7 0.3s0.5-0.1 0.7-0.3l5-5c0.1-0.1 0.2-0.2 0.2-0.3z"></path>
</symbol>
<symbol id="icon-camera" viewBox="0 0 24 24">
<path d="M12 17.016c2.766 0 5.016-2.25 5.016-5.016s-2.25-5.016-5.016-5.016-5.016 2.25-5.016 5.016 2.25 5.016 5.016 5.016zM9 2.016h6l1.828 1.969h3.188c1.078 0 1.969 0.938 1.969 2.016v12c0 1.078-0.891 2.016-1.969 2.016h-16.031c-1.078 0-1.969-0.938-1.969-2.016v-12c0-1.078 0.891-2.016 1.969-2.016h3.188zM8.813 12c0-1.781 1.406-3.188 3.188-3.188s3.188 1.406 3.188 3.188-1.406 3.188-3.188 3.188-3.188-1.406-3.188-3.188z"></path>
</symbol>
<symbol id="icon-chevron-left" viewBox="0 0 20 20">
<path d="M13.891 17.418c0.268 0.272 0.268 0.709 0 0.979s-0.701 0.271-0.969 0l-7.83-7.908c-0.268-0.27-0.268-0.707 0-0.979l7.83-7.908c0.268-0.27 0.701-0.27 0.969 0s0.268 0.709 0 0.979l-7.141 7.419 7.141 7.418z"></path>
</symbol>
<symbol id="icon-chevron-right" viewBox="0 0 20 20">
<path d="M13.25 10l-7.141-7.42c-0.268-0.27-0.268-0.707 0-0.979 0.268-0.27 0.701-0.27 0.969 0l7.83 7.908c0.268 0.271 0.268 0.709 0 0.979l-7.83 7.908c-0.268 0.271-0.701 0.27-0.969 0s-0.268-0.707 0-0.979l7.141-7.417z"></path>
</symbol>
<symbol id="icon-map-marker" viewBox="0 0 16 28">
<path d="M12 10c0-2.203-1.797-4-4-4s-4 1.797-4 4 1.797 4 4 4 4-1.797 4-4zM16 10c0 0.953-0.109 1.937-0.516 2.797l-5.688 12.094c-0.328 0.688-1.047 1.109-1.797 1.109s-1.469-0.422-1.781-1.109l-5.703-12.094c-0.406-0.859-0.516-1.844-0.516-2.797 0-4.422 3.578-8 8-8s8 3.578 8 8z"></path>
</symbol>
<symbol id="icon-calendar" viewBox="0 0 26 28">
<path d="M2 26h4.5v-4.5h-4.5v4.5zM7.5 26h5v-4.5h-5v4.5zM2 20.5h4.5v-5h-4.5v5zM7.5 20.5h5v-5h-5v5zM2 14.5h4.5v-4.5h-4.5v4.5zM13.5 26h5v-4.5h-5v4.5zM7.5 14.5h5v-4.5h-5v4.5zM19.5 26h4.5v-4.5h-4.5v4.5zM13.5 20.5h5v-5h-5v5zM8 7v-4.5c0-0.266-0.234-0.5-0.5-0.5h-1c-0.266 0-0.5 0.234-0.5 0.5v4.5c0 0.266 0.234 0.5 0.5 0.5h1c0.266 0 0.5-0.234 0.5-0.5zM19.5 20.5h4.5v-5h-4.5v5zM13.5 14.5h5v-4.5h-5v4.5zM19.5 14.5h4.5v-4.5h-4.5v4.5zM20 7v-4.5c0-0.266-0.234-0.5-0.5-0.5h-1c-0.266 0-0.5 0.234-0.5 0.5v4.5c0 0.266 0.234 0.5 0.5 0.5h1c0.266 0 0.5-0.234 0.5-0.5zM26 6v20c0 1.094-0.906 2-2 2h-22c-1.094 0-2-0.906-2-2v-20c0-1.094 0.906-2 2-2h2v-1.5c0-1.375 1.125-2.5 2.5-2.5h1c1.375 0 2.5 1.125 2.5 2.5v1.5h6v-1.5c0-1.375 1.125-2.5 2.5-2.5h1c1.375 0 2.5 1.125 2.5 2.5v1.5h2c1.094 0 2 0.906 2 2z"></path>
</symbol>
<symbol id="icon-menu" viewBox="0 0 24 24">
<path d="M21 11h-18c-0.6 0-1 0.4-1 1s0.4 1 1 1h18c0.6 0 1-0.4 1-1s-0.4-1-1-1z"></path>
<path d="M3 7h18c0.6 0 1-0.4 1-1s-0.4-1-1-1h-18c-0.6 0-1 0.4-1 1s0.4 1 1 1z"></path>
<path d="M21 17h-18c-0.6 0-1 0.4-1 1s0.4 1 1 1h18c0.6 0 1-0.4 1-1s-0.4-1-1-1z"></path>
</symbol>
<symbol id="icon-x" viewBox="0 0 24 24">
<path d="M13.4 12l5.3-5.3c0.4-0.4 0.4-1 0-1.4s-1-0.4-1.4 0l-5.3 5.3-5.3-5.3c-0.4-0.4-1-0.4-1.4 0s-0.4 1 0 1.4l5.3 5.3-5.3 5.3c-0.4 0.4-0.4 1 0 1.4 0.2 0.2 0.4 0.3 0.7 0.3s0.5-0.1 0.7-0.3l5.3-5.3 5.3 5.3c0.2 0.2 0.5 0.3 0.7 0.3s0.5-0.1 0.7-0.3c0.4-0.4 0.4-1 0-1.4l-5.3-5.3z"></path>
</symbol>
</defs>
</svg>